# xmcd
#
# Track frame offsets:
#	150
#	8283
#	19866
#	35853
#	47238
#	55681
#	67921
#	84631
#	94290
#	106896
#	115840
#	128614
#	142237
#	150396
#	164828
#	172136
#	184709
#	193845
#	202730
#	212105
#	223396
#	233586
#	241078
#	257304
#	281318
#
# Disc length: 4203 seconds
#
# Revision: 1
# Processed by: cddbd v1.4PL0 Copyright (c) Steve Scherf et al.
# Submitted via: audiograbber 1.82.02
#
DISCID=5d106919
DTITLE=Red Ellis - Classic Gospel
DYEAR=1998
DGENRE=Bluegrass
TTITLE0=Just One Touch
TTITLE1=Letter to Jesus
TTITLE2=Old time Preaching
TTITLE3=One Drop of Blood
TTITLE4=Conversion of Paul
TTITLE5=The First Love
TTITLE6=Repentence
TTITLE7=Go to Heaven
TTITLE8=Alter of Prayer
TTITLE9=Knees and Pray
TTITLE10=Gospel Highway
TTITLE11=How great is my God
TTITLE12=I Know
TTITLE13=Go Home and Pray
TTITLE14=God Made Man
TTITLE15=Walk with Jesus
TTITLE16=Joy of salvation
TTITLE17=The Cross Roads
TTITLE18=Traveling Through this World
TTITLE19=Thankful
TTITLE20=High Water
TTITLE21=Highway to Heaven
TTITLE22=Victims of Abortion
TTITLE23=Stroll Over Heaven
TTITLE24=Data Track
EXTD=Classic Gospel Bluegrass
EXTT0=
EXTT1=
EXTT2=
EXTT3=
EXTT4=
EXTT5=
EXTT6=
EXTT7=
EXTT8=
EXTT9=
EXTT10=
EXTT11=
EXTT12=
EXTT13=
EXTT14=
EXTT15=
EXTT16=
EXTT17=
EXTT18=
EXTT19=
EXTT20=
EXTT21=
EXTT22=
EXTT23=
EXTT24=
PLAYORDER=
